<svg width="41" height="41" viewBox="0 0 41 41" fill="none" xmlns="http://www.w3.org/2000/svg">
<path d="M20.5008 13.3125C19.0792 13.3125 17.6896 13.7341 16.5076 14.5238C15.3256 15.3136 14.4044 16.4362 13.8604 17.7495C13.3164 19.0628 13.174 20.508 13.4514 21.9022C13.7287 23.2965 14.4132 24.5772 15.4184 25.5824C16.4236 26.5876 17.7043 27.2721 19.0985 27.5494C20.4928 27.8268 21.9379 27.6844 23.2513 27.1404C24.5646 26.5964 25.6872 25.6752 26.4769 24.4932C27.2667 23.3112 27.6883 21.9216 27.6883 20.5C27.6858 18.5946 26.9277 16.7678 25.5803 15.4204C24.233 14.0731 22.4062 13.315 20.5008 13.3125ZM20.5008 25.8125C19.45 25.8125 18.4229 25.501 17.5493 24.9172C16.6756 24.3335 15.9947 23.5038 15.5926 22.533C15.1906 21.5623 15.0853 20.4941 15.2903 19.4636C15.4953 18.4331 16.0013 17.4865 16.7442 16.7435C17.4872 16.0006 18.4338 15.4946 19.4643 15.2896C20.4949 15.0846 21.563 15.1898 22.5338 15.5919C23.5045 15.994 24.3342 16.6749 24.9179 17.5486C25.5017 18.4222 25.8133 19.4493 25.8133 20.5C25.8133 21.909 25.2535 23.2603 24.2573 24.2565C23.261 25.2528 21.9097 25.8125 20.5008 25.8125ZM33.9383 20.9438C33.9476 20.6485 33.9476 20.3516 33.9383 20.0563L36.3336 17.0625C36.4251 16.9479 36.4885 16.8134 36.5186 16.6699C36.5488 16.5263 36.5448 16.3777 36.507 16.236C36.1322 14.8236 35.5711 13.4674 34.8383 12.2032C34.7655 12.0748 34.6634 11.9655 34.5404 11.8841C34.4175 11.8026 34.277 11.7513 34.1304 11.7344L30.3101 11.311C30.1091 11.0953 29.9008 10.887 29.6851 10.686L29.2601 6.8641C29.2432 6.71756 29.1919 6.57708 29.1105 6.45409C29.029 6.3311 28.9197 6.22907 28.7914 6.15628C27.5287 5.42559 26.1747 4.8655 24.7648 4.49066C24.6227 4.45353 24.4739 4.4503 24.3303 4.48124C24.1867 4.51218 24.0524 4.57642 23.9383 4.66878L20.9383 7.07035C20.6425 7.06097 20.3465 7.06097 20.0508 7.07035L17.0633 4.66722C16.9487 4.57566 16.8142 4.51228 16.6706 4.48215C16.5271 4.45203 16.3784 4.45601 16.2367 4.49378C14.8243 4.86855 13.4681 5.42973 12.2039 6.16253C12.0756 6.23532 11.9662 6.33735 11.8848 6.46034C11.8033 6.58333 11.7521 6.72381 11.7351 6.87035L11.3179 10.6907C11.1023 10.8927 10.894 11.1011 10.6929 11.3157L6.8695 11.75C6.72296 11.767 6.58249 11.8182 6.4595 11.8997C6.33651 11.9811 6.23447 12.0905 6.16169 12.2188C5.431 13.4815 4.87091 14.8355 4.49606 16.2453C4.45983 16.3857 4.45664 16.5325 4.48673 16.6743C4.51682 16.8161 4.57939 16.949 4.6695 17.0625L7.07106 20.0625C7.06169 20.3583 7.06169 20.6543 7.07106 20.95L4.66794 23.9453C4.57638 24.0599 4.51299 24.1944 4.48287 24.338C4.45275 24.4816 4.45673 24.6302 4.4945 24.7719C4.86992 26.1816 5.43109 27.5351 6.16325 28.7969C6.23603 28.9252 6.33807 29.0345 6.46106 29.116C6.58405 29.1974 6.72452 29.2487 6.87106 29.2657L10.6914 29.6891C10.8935 29.9047 11.1018 30.1131 11.3164 30.3141L11.7508 34.1313C11.7677 34.2778 11.819 34.4183 11.9004 34.5413C11.9819 34.6643 12.0912 34.7663 12.2195 34.8391C13.4822 35.5698 14.8362 36.1299 16.2461 36.5047C16.3878 36.5425 16.5364 36.5465 16.68 36.5163C16.8235 36.4862 16.958 36.4228 17.0726 36.3313L20.057 33.9375C20.3523 33.9469 20.6492 33.9469 20.9445 33.9375L23.9461 36.3407C24.1125 36.4734 24.3191 36.5456 24.532 36.5453C24.6132 36.5451 24.694 36.5346 24.7726 36.5141C26.1823 36.1387 27.5358 35.5775 28.7976 34.8453C28.9259 34.7726 29.0353 34.6705 29.1167 34.5475C29.1982 34.4246 29.2494 34.2841 29.2664 34.1375L29.6898 30.3172C29.9054 30.1162 30.1138 29.9078 30.3148 29.6922L34.1367 29.2672C34.2832 29.2503 34.4237 29.199 34.5467 29.1176C34.6697 29.0361 34.7717 28.9268 34.8445 28.7985C35.5755 27.5359 36.1356 26.1819 36.5101 24.7719C36.5479 24.6302 36.5519 24.4816 36.5218 24.338C36.4916 24.1944 36.4283 24.0599 36.3367 23.9453L33.9383 20.9438ZM33.4539 27.4485L29.7601 27.8594C29.5293 27.886 29.3166 27.9974 29.1633 28.1719C28.8544 28.5198 28.5252 28.849 28.1773 29.1578C28.0028 29.3112 27.8914 29.5239 27.8648 29.7547L27.4539 33.4469C26.5891 33.9081 25.6804 34.2818 24.7414 34.5625L21.8398 32.2407C21.6734 32.1079 21.4668 32.0357 21.2539 32.036H21.1976C20.7334 32.0625 20.2681 32.0625 19.8039 32.036C19.572 32.0218 19.3432 32.0942 19.1617 32.2391L16.2617 34.5625C15.3235 34.2803 14.4159 33.905 13.5523 33.4422L13.1414 29.7516C13.1148 29.5208 13.0034 29.3081 12.8289 29.1547C12.481 28.8459 12.1518 28.5167 11.8429 28.1688C11.6896 27.9943 11.4769 27.8829 11.2461 27.8563L7.55388 27.4453C7.09317 26.583 6.71946 25.677 6.43825 24.7407L8.76013 21.8391C8.90505 21.6576 8.97743 21.4287 8.96325 21.1969C8.93669 20.7327 8.93669 20.2674 8.96325 19.8032C8.97743 19.5713 8.90505 19.3425 8.76013 19.161L6.43825 16.261C6.72052 15.3228 7.09582 14.4152 7.55856 13.5516L11.2492 13.1407C11.48 13.1141 11.6927 13.0027 11.8461 12.8282C12.1549 12.4803 12.4841 12.151 12.832 11.8422C13.0065 11.6889 13.1179 11.4762 13.1445 11.2453L13.5554 7.55316C14.4177 7.09245 15.3238 6.71874 16.2601 6.43753L19.1617 8.75941C19.3432 8.90433 19.572 8.97671 19.8039 8.96253C20.2681 8.93597 20.7334 8.93597 21.1976 8.96253C21.4295 8.97671 21.6583 8.90433 21.8398 8.75941L24.7398 6.43753C25.678 6.7198 26.5856 7.0951 27.4492 7.55785L27.8601 11.2516C27.8867 11.4824 27.9981 11.6951 28.1726 11.8485C28.5205 12.1573 28.8497 12.4865 29.1586 12.8344C29.3119 13.0089 29.5246 13.1203 29.7554 13.1469L33.4476 13.5578C33.9081 14.4192 34.2819 15.3241 34.5633 16.2594L32.2414 19.161C32.0965 19.3425 32.0241 19.5713 32.0383 19.8032C32.0648 20.2674 32.0648 20.7327 32.0383 21.1969C32.0241 21.4287 32.0965 21.6576 32.2414 21.8391L34.5633 24.7391C34.282 25.6772 33.9077 26.5848 33.4461 27.4485H33.4539Z" fill="white"/>
</svg>
