<svg width="40" height="40" viewBox="0 0 40 40" fill="none" xmlns="http://www.w3.org/2000/svg">
<g clip-path="url(#clip0_66_1784)">
<path d="M19.9994 4.15796C28.7489 4.15796 35.8415 11.2505 35.8415 20.0001C35.8415 28.7497 28.7489 35.8422 19.9994 35.8422C17.4709 35.8457 14.9787 35.2415 12.7326 34.0805L6.67138 35.7709C6.33322 35.8653 5.97604 35.868 5.63646 35.7789C5.29687 35.6898 4.98707 35.512 4.73882 35.2638C4.49056 35.0155 4.31277 34.7057 4.22366 34.3661C4.13455 34.0265 4.13732 33.6694 4.2317 33.3312L5.92364 27.2748C4.7598 25.0267 4.15395 22.5316 4.15724 20.0001C4.15724 11.2505 11.2498 4.15796 19.9994 4.15796ZM19.9994 6.53428C16.428 6.53428 13.0029 7.95299 10.4776 10.4783C7.95227 13.0036 6.53356 16.4287 6.53356 20.0001C6.53356 22.3289 7.12447 24.5673 8.23341 26.5539L8.47105 26.9817L6.7094 33.2932L13.0257 31.5315L13.4534 31.7692C15.2505 32.7683 17.2525 33.3427 19.306 33.4481C21.3595 33.5536 23.4098 33.1874 25.2999 32.3777C27.1899 31.5679 28.8694 30.3361 30.2095 28.7766C31.5496 27.2172 32.5149 25.3715 33.0312 23.3812C33.5475 21.3909 33.6011 19.3088 33.188 17.2945C32.7748 15.2803 31.9059 13.3874 30.6478 11.761C29.3898 10.1346 27.7759 8.81795 25.9301 7.91194C24.0843 7.00594 22.0555 6.53467 19.9994 6.53428ZM14.8507 21.5843H21.9764C22.2775 21.5844 22.5673 21.6987 22.7872 21.9042C23.0072 22.1098 23.141 22.3911 23.1615 22.6915C23.182 22.9918 23.0877 23.2887 22.8978 23.5222C22.7078 23.7558 22.4363 23.9085 22.138 23.9495L21.9764 23.9606H14.8507C14.5496 23.9605 14.2598 23.8461 14.0399 23.6406C13.8199 23.4351 13.6862 23.1538 13.6656 22.8534C13.6451 22.5531 13.7394 22.2562 13.9293 22.0226C14.1193 21.7891 14.3908 21.6364 14.6891 21.5954L14.8507 21.5843ZM14.8507 16.0395H25.156C25.4569 16.04 25.7464 16.1547 25.966 16.3603C26.1857 16.566 26.3192 16.8473 26.3395 17.1475C26.3598 17.4477 26.2654 17.7445 26.0755 17.9778C25.8855 18.2112 25.6141 18.3638 25.316 18.4048L25.156 18.4159H14.8507C14.5496 18.4158 14.2598 18.3014 14.0399 18.0959C13.8199 17.8904 13.6862 17.609 13.6656 17.3087C13.6451 17.0083 13.7394 16.7114 13.9293 16.4779C14.1193 16.2444 14.3908 16.0917 14.6891 16.0506L14.8507 16.0395Z" fill="white"/>
</g>
<defs>
<clipPath id="clip0_66_1784">
<rect width="40" height="40" fill="white"/>
</clipPath>
</defs>
</svg>
