<svg width="30" height="30" viewBox="0 0 30 30" fill="none" xmlns="http://www.w3.org/2000/svg">
<path fill-rule="evenodd" clip-rule="evenodd" d="M14.9998 0.900024C11.0786 0.900024 7.89978 4.0788 7.89978 8.00002C7.89978 11.9212 11.0786 15.1 14.9998 15.1C18.921 15.1 22.0998 11.9212 22.0998 8.00002C22.0998 4.0788 18.921 0.900024 14.9998 0.900024ZM10.0998 8.00002C10.0998 5.29383 12.2936 3.10002 14.9998 3.10002C17.706 3.10002 19.8998 5.29383 19.8998 8.00002C19.8998 10.7062 17.706 12.9 14.9998 12.9C12.2936 12.9 10.0998 10.7062 10.0998 8.00002Z" fill="white"/>
<path fill-rule="evenodd" clip-rule="evenodd" d="M8.33307 17.2333C6.27322 17.2333 4.29774 18.0516 2.84121 19.5081C1.38468 20.9647 0.566406 22.9402 0.566406 25C0.566406 26.1758 1.03349 27.3034 1.8649 28.1348C2.69631 28.9663 3.82395 29.4333 4.99974 29.4333H24.9997C26.1755 29.4333 27.3032 28.9663 28.1346 28.1348C28.966 27.3034 29.4331 26.1758 29.4331 25C29.4331 22.9402 28.6148 20.9647 27.1583 19.5081C25.7017 18.0516 23.7263 17.2333 21.6664 17.2333H8.33307ZM4.39684 21.0638C5.4408 20.0198 6.8567 19.4333 8.33307 19.4333H21.6664C23.1428 19.4333 24.5587 20.0198 25.6026 21.0638C26.6466 22.1077 27.2331 23.5236 27.2331 25C27.2331 25.5923 26.9978 26.1604 26.5789 26.5792C26.1601 26.998 25.5921 27.2333 24.9997 27.2333H4.99974C4.40742 27.2333 3.83937 26.998 3.42053 26.5792C3.0017 26.1604 2.76641 25.5923 2.76641 25C2.76641 23.5236 3.35289 22.1077 4.39684 21.0638Z" fill="white"/>
</svg>
